<svg width="26" height="26" viewBox="0 0 26 26" fill="none" xmlns="http://www.w3.org/2000/svg">
<g clip-path="url(#clip0_218_255)">
<path d="M13 11.9167C14.7949 11.9167 16.25 10.4616 16.25 8.66669C16.25 6.87176 14.7949 5.41669 13 5.41669C11.2051 5.41669 9.75 6.87176 9.75 8.66669C9.75 10.4616 11.2051 11.9167 13 11.9167Z" fill="white" stroke="white" stroke-width="2.16667" stroke-linecap="round" stroke-linejoin="round"/>
<path d="M19.5 19.5C19.5 15.9102 16.5898 13 13 13C9.41016 13 6.5 15.9102 6.5 19.5" stroke="white" stroke-width="2.16667" stroke-linecap="round" stroke-linejoin="round"/>
<path d="M19.5 2.16669H23.8333V6.50002" stroke="white" stroke-width="2.16667" stroke-linecap="round" stroke-linejoin="round"/>
<path d="M6.50002 2.16669H2.16669V6.50002" stroke="white" stroke-width="2.16667" stroke-linecap="round" stroke-linejoin="round"/>
<path d="M19.5 23.8333H23.8333V19.5" stroke="white" stroke-width="2.16667" stroke-linecap="round" stroke-linejoin="round"/>
<path d="M6.50002 23.8333H2.16669V19.5" stroke="white" stroke-width="2.16667" stroke-linecap="round" stroke-linejoin="round"/>
</g>
<defs>
<clipPath id="clip0_218_255">
<rect width="26" height="26" fill="white"/>
</clipPath>
</defs>
</svg>
